<?xml version="1.0" encoding="UTF-8"?>
<svg width="89px" height="23px" viewBox="0 0 89 23" version="1.1" xmlns="http://www.w3.org/2000/svg" xmlns:xlink="http://www.w3.org/1999/xlink">
    <!-- Generator: Sketch 51 (57462) - http://www.bohemiancoding.com/sketch -->
    <title>Group Copy</title>
    <desc>Created with Sketch.</desc>
    <defs>
        <linearGradient x1="27.1603954%" y1="8.20732527%" x2="71.5282207%" y2="87.281586%" id="linearGradient-1">
            <stop stop-color="#42DCC7" offset="0%"></stop>
            <stop stop-color="#0BA986" offset="100%"></stop>
        </linearGradient>
    </defs>
    <g id="Page-1" stroke="none" stroke-width="1" fill="none" fill-rule="evenodd">
        <g id="Group-6" transform="translate(-152.000000, -112.000000)">
            <g id="Group-Copy" transform="translate(152.000000, 112.000000)">
                <path d="M34.7754249,15.2277274 L33.2349505,15.2277274 L33.2349505,21.8539602 L29.8148148,21.8539602 L29.8148148,0 L33.2349505,0 L33.2349505,12.4959824 L34.6623625,12.4959824 L38.5206148,6.69627756 L42.5625933,6.69627756 L37.5171865,13.5886804 L43.3116313,21.8539602 L39.3261839,21.8539602 L34.7754249,15.2277274 Z M54.1514829,21.8539602 C54.0289981,21.471047 53.9277141,21.0974788 53.8476279,20.7332443 C53.7675416,20.3690098 53.7133665,20.0047808 53.6851007,19.6405463 C53.2140053,20.3503366 52.5945241,20.945711 51.8266386,21.4266873 C51.058753,21.9076636 50.1990168,22.1481481 49.247404,22.1481481 C47.6551015,22.1481481 46.4326272,21.7418927 45.5799444,20.9293696 C44.7272617,20.1168465 44.3009268,19.0008114 44.3009268,17.5812308 C44.3009268,16.1149535 44.8850763,14.9732356 46.053393,14.1560428 C47.2217096,13.3388501 48.865808,12.9302598 50.9857374,12.9302598 L53.6568352,12.9302598 L53.6568352,11.5994097 C53.6568352,10.8055653 53.421291,10.1845081 52.9501956,9.73621946 C52.4791001,9.28793085 51.8054438,9.06378991 50.9292063,9.06378991 C50.1471879,9.06378991 49.5253512,9.25057403 49.0636777,9.62414787 C48.6020042,9.9977217 48.3711709,10.4786908 48.3711709,11.0670696 L45.0640975,11.0670696 L45.0499647,10.9830159 C44.9840114,9.78757963 45.5234076,8.72757976 46.6681694,7.80298452 C47.8129313,6.87838927 49.303926,6.41609858 51.1411982,6.41609858 C52.9219389,6.41609858 54.3587584,6.86438046 55.4516998,7.76095767 C56.5446412,8.65753488 57.0911036,9.94634529 57.0911036,11.6274276 L57.0911036,18.365732 C57.0911036,18.9914681 57.1335016,19.5915121 57.2182988,20.1658819 C57.303096,20.7402517 57.4397116,21.3029388 57.6281498,21.8539602 L54.1514829,21.8539602 Z M49.9399108,19.4164031 C50.8067264,19.4164031 51.5863776,19.2016014 52.2788879,18.7719915 C52.9713982,18.3423816 53.4307094,17.8520733 53.6568352,17.3010518 L53.6568352,15.05962 L50.9292063,15.05962 C49.930484,15.05962 49.1484773,15.3047742 48.5831628,15.7950898 C48.0178483,16.2854055 47.7351953,16.8621015 47.7351953,17.525195 C47.7351953,18.1042345 47.925986,18.5641904 48.3075733,18.9050765 C48.6891606,19.2459626 49.2332677,19.4164031 49.9399108,19.4164031 Z M69.0110483,19.6405463 C68.5305309,20.4437301 67.9228269,21.0624524 67.1879181,21.496732 C66.4530092,21.9310116 65.6050502,22.1481481 64.6440155,22.1481481 C63.0046034,22.1481481 61.7232431,21.6298222 60.799896,20.5931548 C59.876549,19.5564874 59.4148824,17.9454744 59.4148824,15.7600675 L59.4148824,6.69627756 L62.8350181,6.69627756 L62.8350181,15.7880854 C62.8350181,17.1142725 63.0517187,18.0435235 63.4851265,18.5758662 C63.9185343,19.1082089 64.5733471,19.3743763 65.4495846,19.3743763 C66.2787126,19.3743763 66.9735679,19.2272838 67.5341715,18.9330944 C68.094775,18.638905 68.5352427,18.2116363 68.8555875,17.6512756 L68.8555875,6.69627756 L72.289856,6.69627756 L72.289856,21.8539602 L69.2937041,21.8539602 L69.0110483,19.6405463 Z M82.5296248,9.76423736 L81.0598144,9.70820156 C80.3908589,9.70820156 79.8326192,9.84828965 79.3850785,10.12847 C78.9375379,10.4086504 78.5912879,10.8055667 78.3463183,11.3192307 L78.3463183,21.8539602 L74.9120498,21.8539602 L74.9120498,6.69627756 L78.0495297,6.69627756 L78.2756543,8.89568253 C78.6619526,8.12051681 79.1589508,7.51346843 79.7666639,7.07451917 C80.374377,6.63556992 81.0739432,6.41609858 81.8653835,6.41609858 C82.0726655,6.41609858 82.2658117,6.43244219 82.444828,6.4651299 C82.6238443,6.49781761 82.7887252,6.53750923 82.9394757,6.58420596 L82.5296248,9.76423736 Z M88.5925926,21.8539602 L85.1583241,21.8539602 L85.1583241,6.69627756 L88.5925926,6.69627756 L88.5925926,21.8539602 Z M88.5925926,2.98390611 L85.1583241,2.98390611 L85.1583241,0 L88.5925926,0 L88.5925926,2.98390611 Z" id="kauri" fill="#FFFFFF"></path>
                <path d="M26.3721468,15.3333333 C24.9320172,13.6870254 23.5416389,12.4515342 22.9441409,11.9925238 C23.9683887,11.5597158 24.9923949,11.2181484 25.9200384,10.952381 C26.2373837,12.0507774 26.4074074,13.2078953 26.4074074,14.4029132 C26.4074074,14.7157047 26.3950904,15.0261567 26.3721468,15.3333333 Z M19.6973285,20.2562789 C17.3744307,21.040028 15.0154195,23 12.9871308,23 C10.958842,23 8.59983085,21.040028 6.27717061,20.2560393 C8.84644718,17.9424098 12.0814453,16.4451158 12.2641505,16.3624519 C12.7103407,16.1585478 13.2639208,16.1585478 13.710111,16.3624519 C13.8928162,16.4451158 17.1282895,17.9421702 19.6973285,20.2562789 Z M3.24681239,11.949445 C2.67818872,12.393004 1.38655957,13.5564027 0.0215750971,15.1142857 C0.00767114563,14.8715079 0,14.6268427 0,14.3805259 C0,13.1937696 0.163491291,12.044527 0.4691385,10.952381 C1.34269021,11.212618 2.29463144,11.5408044 3.24681239,11.949445 Z M20.9795087,12.7582372 C21.4342178,12.6278859 21.9485177,12.7408093 22.2706431,13.0428136 C22.3745083,13.1406965 24.6956784,14.9085559 26.1909532,17.149834 C26.1064731,17.5716852 26.0016507,17.9858967 25.877204,18.3919911 C24.6978323,18.718108 22.5113235,19.0219437 20.7523174,19.7142857 C18.7159387,17.5498814 15.5380771,16.0884022 14.7188828,15.6114024 C17.4607785,13.9397546 20.8186853,12.8033588 20.9795087,12.7582372 Z M4.65667015,10.8527352 C4.00085249,11.181749 2.55203566,10.6479187 0.865816636,9.9547868 C1.83153657,7.30863516 3.60352365,5.05734841 5.87993119,3.5047619 C6.64852674,3.64348513 9.04410922,4.07345451 12.3378871,5.81681572 C8.92635584,7.04159899 5.926843,10.21456 4.65667015,10.8527352 Z M13.751133,7.18697206 C13.9348406,7.28308986 17.7635562,8.79760112 20.346691,11.4850835 C18.0110479,12.3954598 14.3423897,14.8952381 13.0241859,14.8952381 C11.7059821,14.8952381 8.41365185,12.3956983 6.07800875,11.4850835 C8.66162133,8.79831663 12.1135311,7.28308986 12.2972387,7.18697206 C12.7458772,6.95037439 13.3024946,6.95037439 13.751133,7.18697206 Z M11.4720704,15.6642886 C10.657801,16.1499739 7.02677283,17.9485655 5.00287429,20.152381 C3.35482903,19.4880276 1.74841309,18.8992739 0.587549801,18.5555506 C0.434829671,18.05212 0.310179597,17.536292 0.216454159,17.0097682 C1.70297766,14.8334214 3.86603707,13.1454339 3.96570955,13.0489289 C4.28589848,12.7416685 4.79710652,12.6264458 5.24908198,12.7591706 C5.40893856,12.8051139 8.7466584,13.9622021 11.4720704,15.6642886 Z M19.2644202,2.61067737 C17.2036038,3.11647023 14.1935415,4.38095238 13.3115779,4.38095238 C12.4298496,4.38071908 9.41955205,3.11647023 7.35944141,2.61067737 C9.63833735,1.11779522 12.5081889,0.151936162 12.6705134,0.0985106249 C13.0659738,-0.032836875 13.557182,-0.032836875 13.9528776,0.0985106249 C14.1149669,0.151936162 16.985289,1.11779522 19.2644202,2.61067737 Z M21.5691728,10.8530575 C20.2931912,10.2172006 17.280199,7.05576669 13.8530662,5.83543294 C17.4175318,3.96452789 19.9340313,3.61162252 20.489313,3.5047619 C22.7763689,5.03892334 24.5602679,7.26852304 25.5415908,9.89131192 C23.7779229,10.6140081 22.2491727,11.1914896 21.5691728,10.8530575 Z" id="Combined-Shape-Copy" fill="url(#linearGradient-1)"></path>
            </g>
        </g>
    </g>
</svg>